<?xml version="1.0" encoding="iso-8859-1"?>
<!-- Generator: Adobe Illustrator 19.0.0, SVG Export Plug-In . SVG Version: 6.00 Build 0)  -->
<svg version="1.1" id="Layer_1" xmlns="http://www.w3.org/2000/svg" xmlns:xlink="http://www.w3.org/1999/xlink" x="0px" y="0px"
	 viewBox="0 0 511.991 511.991" style="enable-background:new 0 0 511.991 511.991;" xml:space="preserve">
<g>
	<path style="fill:#E6E9ED;" d="M117.341,266.667c-5.89,0-10.671-4.781-10.671-10.671v-42.671c0-5.891,4.781-10.656,10.671-10.656
		c5.891,0,10.656,4.765,10.656,10.656v42.67C127.997,261.886,123.232,266.667,117.341,266.667z"/>
	<path style="fill:#E6E9ED;" d="M415.992,266.667c-5.891,0-10.656-4.781-10.656-10.671v-42.671c0-5.891,4.766-10.656,10.656-10.656
		s10.671,4.765,10.671,10.656v42.67C426.663,261.886,421.882,266.667,415.992,266.667z"/>
</g>
<polygon style="fill:#CCD1D9;" points="261.37,307.915 164.84,252.762 175.434,234.245 271.964,289.401 "/>
<g>
	<polygon style="fill:#E6E9ED;" points="120.279,351.587 114.404,331.071 263.745,288.401 269.604,308.915 	"/>
	<polygon style="fill:#E6E9ED;" points="413.07,351.587 263.745,308.915 269.604,288.401 418.929,331.071 	"/>
</g>
<path style="fill:#CCD1D9;" d="M266.683,309.321c-3.703,0-7.312-1.92-9.281-5.373c-2.922-5.109-1.141-11.625,3.969-14.547
	l100.607-57.484c5.125-2.922,11.641-1.156,14.562,3.969c2.922,5.109,1.141,11.625-3.969,14.547l-100.607,57.482
	C270.292,308.868,268.479,309.321,266.683,309.321z"/>
<path style="fill:#5D9CEC;" d="M503.912,160.309l-82.468-20.609L359.54,77.795c-2-2-4.719-3.125-7.547-3.125H213.34
	c-4.766,0-8.953,3.156-10.266,7.734c-0.297,1.031-6.625,23.531-10.109,56.265H10.672C4.781,138.67,0,143.436,0,149.326v106.67
	c0,5.89,4.781,10.671,10.672,10.671h63.999c5.891,0,10.672-4.781,10.672-10.671c0-17.641,14.343-32,31.999-32
	c17.641,0,32,14.359,32,32c0,5.89,4.781,10.671,10.656,10.671h213.34c5.891,0,10.656-4.781,10.656-10.671
	c0-17.641,14.358-32,31.999-32c17.655,0,31.999,14.359,31.999,32c0,5.89,4.781,10.671,10.672,10.671h42.671
	c5.891,0,10.656-4.781,10.656-10.671v-85.327C511.99,165.764,508.662,161.497,503.912,160.309z"/>
<path style="fill:#4FC2E9;" d="M359.54,77.795c-2-2-4.719-3.125-7.547-3.125H213.34c-4.766,0-8.953,3.156-10.266,7.734
	c-0.297,1.031-6.625,23.531-10.109,56.265l228.479,1.031L359.54,77.795z"/>
<polygon style="fill:#3BAFDA;" points="255.995,138.951 277.339,139.044 277.339,74.67 255.995,74.67 "/>
<path style="fill:#5D9CEC;" d="M501.334,266.667h-42.671c-5.891,0-10.672-4.781-10.672-10.671c0-17.641-14.344-32-31.999-32
	c-17.641,0-31.999,14.359-31.999,32c0,5.89-4.766,10.671-10.656,10.671h-213.34c-5.875,0-10.656-4.781-10.656-10.671
	c0-17.641-14.359-32-32-32c-17.656,0-31.999,14.359-31.999,32c0,5.89-4.781,10.671-10.672,10.671H10.672
	C4.781,266.667,0,261.886,0,255.997v-106.67c0-5.891,4.781-10.656,10.672-10.656h182.293c3.484-32.734,9.812-55.233,10.109-56.265
	c1.312-4.578,5.5-7.734,10.266-7.734h138.653c2.828,0,5.547,1.125,7.547,3.125l61.904,61.905l82.468,20.609
	c4.75,1.188,8.078,5.453,8.078,10.359v85.326C511.99,261.886,507.224,266.667,501.334,266.667z M468.257,245.324h22.406v-66.327
	l-77.249-19.312c-1.875-0.469-3.594-1.438-4.953-2.812l-60.874-60.874h-125.92c-2.391,10.281-6.375,29.999-8.359,54.202
	c-0.469,5.531-5.094,9.796-10.641,9.796H21.343v85.327h43.733c4.953-24.312,26.515-42.655,52.265-42.655
	s47.296,18.343,52.265,42.655h194.137c4.953-24.312,26.5-42.655,52.249-42.655C441.757,202.669,463.304,221.012,468.257,245.324z"/>
<path style="fill:#F5F7FA;" d="M503.912,160.309l-34.577-8.64v18.999c0,5.891,4.766,10.656,10.656,10.656h31.999v-10.656
	C511.99,165.764,508.662,161.497,503.912,160.309z"/>
<path style="fill:#434A54;" d="M319.993,191.997h-21.327c-5.891,0-10.671-4.781-10.671-10.672s4.78-10.656,10.671-10.656h21.327
	c5.891,0,10.672,4.766,10.672,10.656S325.884,191.997,319.993,191.997z"/>
<path style="fill:#ED5564;" d="M10.672,138.669C4.781,138.669,0,143.436,0,149.326v31.999h10.672c4.046,0,7.734-2.281,9.546-5.891
	l18.375-36.765L10.672,138.669L10.672,138.669z"/>
<path style="fill:#434A54;" d="M415.992,245.324c-52.921,0-95.999,43.078-95.999,95.998c0,52.938,43.078,95.998,95.999,95.998
	c52.937,0,95.998-43.061,95.998-95.998C511.99,288.401,468.929,245.324,415.992,245.324z"/>
<path style="fill:#E6E9ED;" d="M415.992,298.667c-23.516,0-42.655,19.139-42.655,42.654c0,23.531,19.14,42.672,42.655,42.672
	c23.53,0,42.671-19.141,42.671-42.672C458.663,317.806,439.522,298.667,415.992,298.667z"/>
<path style="fill:#434A54;" d="M423.538,333.79c4.172,4.156,4.172,10.906,0,15.078c-4.156,4.172-10.921,4.172-15.077,0
	c-4.172-4.172-4.172-10.922,0-15.078C412.617,329.618,419.382,329.618,423.538,333.79z"/>
<g>
	<path style="fill:#656D78;" d="M415.992,245.324c-3.594,0-7.156,0.219-10.656,0.594v10.077c0,5.89,4.766,10.671,10.656,10.671
		s10.671-4.781,10.671-10.671v-10.078C423.163,245.542,419.6,245.324,415.992,245.324z"/>
	<path style="fill:#656D78;" d="M415.992,415.991c-5.891,0-10.656,4.781-10.656,10.672v10.062c3.5,0.391,7.062,0.594,10.656,0.594
		c3.608,0,7.171-0.203,10.671-0.594v-10.062C426.663,420.772,421.882,415.991,415.992,415.991z"/>
	<path style="fill:#656D78;" d="M348.118,273.448c-2.547,2.547-4.922,5.203-7.125,7.969l7.125,7.109
		c4.172,4.172,10.922,4.172,15.078,0c4.172-4.156,4.172-10.906,0-15.078l-7.109-7.125
		C353.321,268.526,350.665,270.901,348.118,273.448z"/>
	<path style="fill:#656D78;" d="M468.788,394.118c-4.156,4.172-4.156,10.922,0,15.094l7.125,7.123
		c2.75-2.201,5.422-4.576,7.969-7.123s4.922-5.219,7.125-7.969l-7.125-7.125C479.71,389.962,472.96,389.962,468.788,394.118z"/>
	<path style="fill:#656D78;" d="M319.993,341.321c0,3.609,0.219,7.172,0.609,10.672h10.062c5.891,0,10.672-4.781,10.672-10.672
		s-4.781-10.656-10.672-10.656h-10.062C320.212,334.165,319.993,337.727,319.993,341.321z"/>
	<path style="fill:#656D78;" d="M490.663,341.321c0,5.891,4.78,10.672,10.671,10.672h10.062c0.391-3.5,0.594-7.062,0.594-10.672
		c0-3.594-0.203-7.156-0.594-10.656h-10.062C495.443,330.665,490.663,335.431,490.663,341.321z"/>
	<path style="fill:#656D78;" d="M348.118,409.212c2.547,2.547,5.203,4.922,7.969,7.123l7.109-7.123
		c4.172-4.172,4.172-10.922,0-15.094c-4.156-4.156-10.906-4.156-15.078,0l-7.125,7.125
		C343.196,403.993,345.571,406.665,348.118,409.212z"/>
	<path style="fill:#656D78;" d="M468.788,288.526c4.172,4.172,10.922,4.172,15.094,0l7.125-7.109
		c-2.203-2.766-4.578-5.422-7.125-7.969s-5.219-4.922-7.969-7.125l-7.125,7.125C464.632,277.62,464.632,284.37,468.788,288.526z"/>
</g>
<path style="fill:#434A54;" d="M117.341,245.324c-52.937,0-95.998,43.078-95.998,95.998c0,52.938,43.062,95.998,95.998,95.998
	s95.999-43.061,95.999-95.998C213.34,288.401,170.278,245.324,117.341,245.324z"/>
<path style="fill:#E6E9ED;" d="M117.341,298.667c-23.531,0-42.671,19.139-42.671,42.654c0,23.531,19.14,42.672,42.671,42.672
	s42.656-19.141,42.656-42.672C159.997,317.806,140.872,298.667,117.341,298.667z"/>
<path style="fill:#434A54;" d="M124.872,333.79c4.172,4.156,4.172,10.906,0,15.078c-4.156,4.172-10.906,4.172-15.078,0
	c-4.172-4.172-4.172-10.922,0-15.078C113.966,329.618,120.716,329.618,124.872,333.79z"/>
<g>
	<path style="fill:#656D78;" d="M117.341,245.324c-3.609,0-7.156,0.219-10.671,0.594v10.077c0,5.89,4.781,10.671,10.671,10.671
		c5.891,0,10.656-4.781,10.656-10.671v-10.078C124.497,245.542,120.935,245.324,117.341,245.324z"/>
	<path style="fill:#656D78;" d="M117.341,415.991c-5.89,0-10.671,4.781-10.671,10.672v10.062c3.516,0.391,7.062,0.594,10.671,0.594
		c3.594,0,7.156-0.203,10.656-0.594v-10.062C127.997,420.772,123.232,415.991,117.341,415.991z"/>
	<path style="fill:#656D78;" d="M49.468,273.448c-2.562,2.547-4.938,5.203-7.125,7.969l7.125,7.109
		c4.156,4.172,10.906,4.172,15.078,0c4.172-4.156,4.172-10.906,0-15.078l-7.125-7.125C54.671,268.526,51.999,270.901,49.468,273.448
		z"/>
	<path style="fill:#656D78;" d="M170.137,394.118c-4.172,4.172-4.172,10.922,0,15.094l7.125,7.123
		c2.75-2.201,5.406-4.576,7.953-7.123s4.921-5.219,7.125-7.969l-7.125-7.125C181.059,389.962,174.293,389.962,170.137,394.118z"/>
	<path style="fill:#656D78;" d="M21.343,341.321c0,3.609,0.203,7.172,0.594,10.672h10.062c5.906,0,10.671-4.781,10.671-10.672
		s-4.765-10.656-10.671-10.656H21.937C21.546,334.165,21.343,337.727,21.343,341.321z"/>
	<path style="fill:#656D78;" d="M191.996,341.321c0,5.891,4.781,10.672,10.672,10.672h10.078c0.391-3.5,0.594-7.062,0.594-10.672
		c0-3.594-0.203-7.156-0.594-10.656h-10.078C196.777,330.665,191.996,335.431,191.996,341.321z"/>
	<path style="fill:#656D78;" d="M49.468,409.212c2.531,2.547,5.203,4.922,7.953,7.123l7.125-7.123
		c4.172-4.172,4.172-10.922,0-15.094c-4.171-4.156-10.921-4.156-15.078,0l-7.125,7.125C44.53,403.993,46.905,406.665,49.468,409.212
		z"/>
	<path style="fill:#656D78;" d="M170.137,288.526c4.156,4.172,10.922,4.172,15.078,0l7.125-7.109
		c-2.203-2.766-4.578-5.422-7.125-7.969s-5.203-4.922-7.953-7.125l-7.125,7.125C165.965,277.62,165.965,284.37,170.137,288.526z"/>
</g>
<g>
</g>
<g>
</g>
<g>
</g>
<g>
</g>
<g>
</g>
<g>
</g>
<g>
</g>
<g>
</g>
<g>
</g>
<g>
</g>
<g>
</g>
<g>
</g>
<g>
</g>
<g>
</g>
<g>
</g>
</svg>
