<?xml version="1.0" encoding="iso-8859-1"?>
<!-- Generator: Adobe Illustrator 19.0.0, SVG Export Plug-In . SVG Version: 6.00 Build 0)  -->
<svg version="1.1" id="Layer_1" xmlns="http://www.w3.org/2000/svg" xmlns:xlink="http://www.w3.org/1999/xlink" x="0px" y="0px"
	 viewBox="0 0 511.991 511.991" style="enable-background:new 0 0 511.991 511.991;" xml:space="preserve">
<path style="fill:#CCD1D9;" d="M341.306,309.184h-234.66H31.999c-5.891,0-10.664,4.781-10.664,10.688v53.594
	c0,5.875,4.773,10.656,10.664,10.656h74.647c1.148,0,2.258-0.188,3.297-0.531h231.362v-74.407H341.306z"/>
<g>
	<polygon style="fill:#E6E9ED;" points="290.307,306.561 217.37,155.509 236.581,146.244 309.525,297.28 	"/>
	<path style="fill:#E6E9ED;" d="M320.009,330.528H10.664C4.773,330.528,0,325.747,0,319.872c0-5.906,4.773-10.688,10.664-10.688
		h309.345c5.891,0,10.672,4.781,10.672,10.688C330.681,325.747,325.899,330.528,320.009,330.528z"/>
	<polygon style="fill:#E6E9ED;" points="287.995,191.868 106.662,106.541 127.99,85.213 330.634,171.868 330.634,319.872 
		287.995,319.872 	"/>
	<path style="fill:#E6E9ED;" d="M106.662,204.196c0,5.89,4.773,10.656,10.664,10.656s10.664-4.766,10.664-10.656v-97.655h-21.328
		C106.662,106.541,106.662,204.196,106.662,204.196z"/>
</g>
<path style="fill:#434A54;" d="M127.896,245.132v-42.593c0-5.891-4.773-10.672-10.664-10.672c-5.89,0-10.664,4.781-10.664,10.672
	v42.656c0,0.141-0.008,0.094,0,0.172c-0.023,1-0.336,3.859-1.609,6.219c-1.148,2.125-3.109,4.281-8.961,4.281
	c-5.938,0-7.929-2.203-9-4.141c-1.273-2.297-1.57-5.109-1.578-6v0.141h-0.133c0.008-0.172,0.023-0.359,0.023-0.531
	c0-5.891-4.773-10.672-10.664-10.672s-10.664,4.781-10.664,10.672c0,0.578,0.055,1.125,0.141,1.688
	c0.203,3.922,1.461,13.75,8.875,21.328c3.953,4.023,11.156,8.836,23,8.836c11.742,0,18.914-4.781,22.859-8.82
	C127.654,259.382,127.919,247.148,127.896,245.132z"/>
<polygon style="fill:#A0D468;" points="330.649,372.934 330.774,170.633 431.179,170.539 473.069,242.46 501.303,261.522 
	501.115,372.934 "/>
<polygon style="fill:#4FC2E9;" points="468.71,234.976 431.179,170.539 330.774,170.633 330.727,234.976 "/>
<path style="fill:#A0D468;" d="M481.054,234.976l-43.75-75.108l-117.186,0.109l-0.156,223.613h191.81l0.219-127.724L481.054,234.976
	z M490.475,362.278h-149.17l0.125-180.989l83.607-0.078l37.578,64.515l2.469,4.203l4.031,2.734l21.531,14.531L490.475,362.278z"/>
<g>
	<path style="fill:#434A54;" d="M415.961,320.122c-29.452,0-53.327,23.875-53.327,53.344c0,29.438,23.875,53.311,53.327,53.311
		s53.343-23.873,53.343-53.311C469.304,343.997,445.413,320.122,415.961,320.122z"/>
	<path style="fill:#434A54;" d="M117.31,320.122c-29.452,0-53.327,23.875-53.327,53.344c0,29.438,23.875,53.311,53.327,53.311
		c29.453,0,53.335-23.873,53.335-53.311C170.645,343.997,146.763,320.122,117.31,320.122z"/>
</g>
<rect x="362.645" y="181.255" style="fill:#3BAFDA;" width="21.344" height="53.718"/>
<g>
	<path style="fill:#E6E9ED;" d="M405.305,373.466c0,5.875,4.766,10.656,10.656,10.656s10.671-4.781,10.671-10.656
		c0-5.906-4.781-10.688-10.671-10.688C410.07,362.778,405.305,367.559,405.305,373.466z"/>
	<path style="fill:#E6E9ED;" d="M511.912,299.561c-1.516-0.812-3.234-1.281-5.078-1.281h-16.187c-5.906,0-10.672,4.75-10.672,10.654
		c0,5.875,4.766,10.656,10.672,10.656h16.187c1.828,0,3.547-0.438,5.047-1.25L511.912,299.561z"/>
	<path style="fill:#E6E9ED;" d="M106.646,373.466c0,5.875,4.773,10.656,10.664,10.656s10.664-4.781,10.664-10.656
		c0-5.906-4.773-10.688-10.664-10.688C111.42,362.778,106.646,367.559,106.646,373.466z"/>
</g>
<g>
</g>
<g>
</g>
<g>
</g>
<g>
</g>
<g>
</g>
<g>
</g>
<g>
</g>
<g>
</g>
<g>
</g>
<g>
</g>
<g>
</g>
<g>
</g>
<g>
</g>
<g>
</g>
<g>
</g>
</svg>
