<?xml version="1.0" encoding="iso-8859-1"?>
<!-- Generator: Adobe Illustrator 19.0.0, SVG Export Plug-In . SVG Version: 6.00 Build 0)  -->
<svg version="1.1" id="Layer_1" xmlns="http://www.w3.org/2000/svg" xmlns:xlink="http://www.w3.org/1999/xlink" x="0px" y="0px"
	 viewBox="0 0 511.99 511.99" style="enable-background:new 0 0 511.99 511.99;" xml:space="preserve">
<path style="fill:#CCD1D9;" d="M287.995,74.659h-64c-29.406,0-53.327,23.93-53.327,53.335c0,29.406,23.921,53.335,53.327,53.335
	c25.765,0,47.312-18.359,52.265-42.671h11.735c5.905,0,10.671-4.773,10.671-10.664V85.33C298.666,79.44,293.9,74.659,287.995,74.659
	z"/>
<path style="fill:#E6E9ED;" d="M287.995,74.659h-42.656v53.335h53.327V85.33C298.666,79.44,293.9,74.659,287.995,74.659z"/>
<path style="fill:#A0D468;" d="M510.209,292.741l-42.046-63.078l-42.266-105.631c-1.609-4.047-5.531-6.703-9.905-6.703H10.672
	C4.781,117.329,0,122.102,0,127.993v255.996c0,5.891,4.781,10.656,10.672,10.656h490.662c5.891,0,10.656-4.766,10.656-10.656
	v-85.342C511.99,296.554,511.381,294.491,510.209,292.741z"/>
<path style="fill:#8CC153;" d="M383.993,170.657h-15.641c0-5.89-20.375-10.664-45.516-10.664c-25.124,0-45.498,4.773-45.498,10.664
	v223.988h91.014v-10.656h15.641L383.993,170.657L383.993,170.657z"/>
<path style="fill:#E6E9ED;" d="M511.99,309.333h-31.999c-5.891,0-10.656,4.766-10.656,10.656s4.766,10.656,10.656,10.656h31.999
	V309.333z"/>
<g>
	<path style="fill:#434A54;" d="M359.54,295.538c-4.156,4.172-10.922,4.172-15.078,0c-4.172-4.172-4.172-10.922,0-15.094
		c4.156-4.172,10.922-4.172,15.078,0C363.712,284.616,363.712,291.366,359.54,295.538z"/>
	<path style="fill:#434A54;" d="M415.992,330.645c-29.405,0-53.327,23.938-53.327,53.344s23.922,53.342,53.327,53.342
		c29.421,0,53.343-23.936,53.343-53.342S445.413,330.645,415.992,330.645z"/>
	<path style="fill:#434A54;" d="M95.998,330.645c-29.406,0-53.327,23.938-53.327,53.344s23.921,53.342,53.327,53.342
		c29.421,0,53.343-23.936,53.343-53.342S125.419,330.645,95.998,330.645z"/>
</g>
<g>
	<path style="fill:#F5F7FA;" d="M103.545,391.52c-4.156,4.188-10.922,4.188-15.078,0c-4.172-4.156-4.172-10.906,0-15.062
		c4.156-4.188,10.921-4.188,15.078,0C107.717,380.614,107.717,387.364,103.545,391.52z"/>
	<path style="fill:#F5F7FA;" d="M423.538,391.52c-4.156,4.188-10.921,4.188-15.077,0c-4.172-4.156-4.172-10.906,0-15.062
		c4.156-4.188,10.921-4.188,15.077,0C427.71,380.614,427.71,387.364,423.538,391.52z"/>
</g>
<path style="fill:#656D78;" d="M245.339,319.989H53.343c-5.891,0-10.672-4.781-10.672-10.656V170.657
	c0-5.89,4.781-10.664,10.672-10.664h191.996c5.891,0,10.656,4.773,10.656,10.664v138.676
	C255.995,315.208,251.229,319.989,245.339,319.989z"/>
<path style="fill:#ED5564;" d="M265.979,192.602l-0.219-1.164l-13.375-31.445H46.28l-13.25,31.164l-0.203,0.836
	c-0.406,1.672-0.609,3.383-0.609,5.078c0,15.093,15.812,26.921,35.999,26.921c7.359,0,14.406-1.602,20.281-4.523
	c5.875,2.922,12.938,4.523,20.281,4.523c7.359,0,14.406-1.602,20.281-4.523c5.875,2.922,12.921,4.523,20.281,4.523
	c7.344,0,14.391-1.602,20.281-4.523c5.875,2.922,12.922,4.523,20.265,4.523c7.359,0,14.406-1.602,20.281-4.523
	c5.875,2.922,12.921,4.523,20.281,4.523c20.203,0,36.015-11.828,36.015-26.921C266.464,195.469,266.167,193.586,265.979,192.602z"/>
<path style="fill:#E6E9ED;" d="M42.671,287.991v21.342c0,5.875,4.781,10.656,10.672,10.656h191.996
	c5.891,0,10.656-4.781,10.656-10.656v-21.342H42.671z"/>
<path style="fill:#4FC2E9;" d="M468.163,229.663l-27.875-69.67H287.995c-5.891,0-10.656,4.773-10.656,10.664v63.999
	c0,5.891,4.766,10.672,10.656,10.672H478.6L468.163,229.663z"/>
<rect x="362.665" y="159.995" style="fill:#3BAFDA;" width="21.328" height="85.33"/>
<g>
</g>
<g>
</g>
<g>
</g>
<g>
</g>
<g>
</g>
<g>
</g>
<g>
</g>
<g>
</g>
<g>
</g>
<g>
</g>
<g>
</g>
<g>
</g>
<g>
</g>
<g>
</g>
<g>
</g>
</svg>
