<?xml version="1.0" encoding="iso-8859-1"?>
<!-- Generator: Adobe Illustrator 19.0.0, SVG Export Plug-In . SVG Version: 6.00 Build 0)  -->
<svg version="1.1" id="Layer_1" xmlns="http://www.w3.org/2000/svg" xmlns:xlink="http://www.w3.org/1999/xlink" x="0px" y="0px"
	 viewBox="0 0 512 512" style="enable-background:new 0 0 512 512;" xml:space="preserve">
<path style="fill:#D3C58B;" d="M507.311,261.102c3.039,3.908,4.689,8.716,4.689,13.667v20.187c0,39.956-32.392,72.348-72.348,72.348
	h-139.13H100.174C44.849,367.304,0,322.455,0,267.13v-89.043C0,122.762,44.849,77.913,100.174,77.913h44.522h155.826h133.565
	c24.588,0,44.522,19.933,44.522,44.522l0,0c0,24.588-19.934,44.522-44.522,44.522L507.311,261.102z"/>
<path style="fill:#7EC1B4;" d="M512,274.768v20.188c0,39.956-32.392,72.348-72.348,72.348h-139.13V267.13H0v-89.043
	c0-3.763,0.215-7.475,0.619-11.13h299.903h133.565l73.224,94.146C510.35,265.009,512,269.818,512,274.768z"/>
<path style="fill:#A5DDD3;" d="M507.311,261.102c3.04,3.908,4.689,8.716,4.689,13.667v20.187c0,39.956-32.392,72.348-72.348,72.348
	h-38.957V166.957h33.391L507.311,261.102z"/>
<path style="fill:#B94B00;" d="M300.522,267.13H0v-89.043c0-3.763,0.215-7.475,0.619-11.13h299.903V267.13z"/>
<path style="fill:#A09875;" d="M510.634,267.13c0.889,2.432,1.366,5.013,1.366,7.638v20.188c0,39.956-32.392,72.348-72.348,72.348
	h-139.13V267.13H510.634z"/>
<path style="fill:#E8DEB3;" d="M44.522,217.043L44.522,217.043c0-35.751,28.981-64.732,64.732-64.732h59.753
	c35.751,0,64.732,28.981,64.732,64.732l0,0c0,35.751-28.981,64.732-64.732,64.732h-59.753
	C73.503,281.776,44.522,252.794,44.522,217.043z"/>
<path style="fill:#7EC1B4;" d="M64.44,217.043L64.44,217.043c0-24.751,20.064-44.814,44.814-44.814h59.753
	c24.751,0,44.814,20.064,44.814,44.814l0,0c0,24.751-20.064,44.814-44.814,44.814h-59.753
	C84.503,261.858,64.44,241.794,64.44,217.043z"/>
<path style="fill:#145B60;" d="M111.304,434.087c-30.736,0-55.652-24.917-55.652-55.652s24.917-55.652,55.652-55.652
	s55.652,24.917,55.652,55.652S142.04,434.087,111.304,434.087z M422.957,378.435c0-30.736-24.917-55.652-55.652-55.652
	s-55.652,24.917-55.652,55.652s24.917,55.652,55.652,55.652S422.957,409.17,422.957,378.435z"/>
<path style="fill:#FFF48B;" d="M111.304,400.696c-12.295,0-22.261-9.966-22.261-22.261c0-12.295,9.966-22.261,22.261-22.261
	s22.261,9.966,22.261,22.261C133.565,390.729,123.599,400.696,111.304,400.696z M389.565,378.435
	c0-12.295-9.966-22.261-22.261-22.261c-12.295,0-22.261,9.966-22.261,22.261c0,12.295,9.966,22.261,22.261,22.261
	C379.599,400.696,389.565,390.729,389.565,378.435z"/>
<g>
</g>
<g>
</g>
<g>
</g>
<g>
</g>
<g>
</g>
<g>
</g>
<g>
</g>
<g>
</g>
<g>
</g>
<g>
</g>
<g>
</g>
<g>
</g>
<g>
</g>
<g>
</g>
<g>
</g>
</svg>
