<?xml version="1.0" encoding="iso-8859-1"?>
<!-- Generator: Adobe Illustrator 19.0.0, SVG Export Plug-In . SVG Version: 6.00 Build 0)  -->
<svg version="1.1" id="Layer_1" xmlns="http://www.w3.org/2000/svg" xmlns:xlink="http://www.w3.org/1999/xlink" x="0px" y="0px"
	 viewBox="0 0 460 460" style="enable-background:new 0 0 460 460;" xml:space="preserve">
<g id="XMLID_1372_">
	<path id="XMLID_937_" style="fill:#D7D5C8;" d="M410,145h-38.182L410,265l0,0l0,0c27.614,0,50,22.386,50,50l0,0
		c0,27.614-22.386,50-50,50l0,0h-30.283c0.182,1.643,0.283,3.309,0.283,5c0,24.853-20.147,45-45,45s-45-20.147-45-45
		c0-1.691,0.101-3.357,0.283-5H129.717c0.182,1.643,0.283,3.309,0.283,5c0,24.853-20.147,45-45,45s-45-20.147-45-45
		c0-1.691,0.101-3.357,0.283-5H40c-22.091,0-40-17.909-40-40V85c0-22.091,17.909-40,40-40h270h30h70c27.614,0,50,22.386,50,50l0,0
		C460,122.614,437.614,145,410,145z"/>
	<path id="XMLID_998_" style="fill:#BEBCB2;" d="M460,315c0,27.614-22.386,50-50,50h-60.872c-2.061-5.822-7.6-10-14.128-10
		s-12.067,4.178-14.128,10H310H99.128c-2.061-5.822-7.6-10-14.128-10s-12.067,4.178-14.128,10H40c-22.091,0-40-17.909-40-40v-80
		h403.636L410,265l0,0C437.614,265,460,287.386,460,315z"/>
	<path id="XMLID_887_" style="fill:#4C4C4B;" d="M85,325c-24.853,0-45,20.147-45,45s20.147,45,45,45s45-20.147,45-45
		S109.853,325,85,325z M85,385c-8.284,0-15-6.716-15-15s6.716-15,15-15s15,6.716,15,15S93.284,385,85,385z M335,325
		c-24.853,0-45,20.147-45,45s20.147,45,45,45s45-20.147,45-45S359.853,325,335,325z M335,385c-8.284,0-15-6.716-15-15
		s6.716-15,15-15s15,6.716,15,15S343.284,385,335,385z"/>
	<path id="XMLID_882_" style="fill:#5C676B;" d="M320,265c-11.046,0-20-8.954-20-20v-80c0-11.046,8.954-20,20-20h51.818L410,265l0,0
		H320z M60,215h70c11.046,0,20-8.954,20-20v-30c0-11.046-8.954-20-20-20H60c-11.046,0-20,8.954-20,20v30
		C40,206.046,48.954,215,60,215z"/>
	<path id="XMLID_934_" style="fill:#768184;" d="M357.143,265H320c-11.046,0-20-8.954-20-20v-80c0-11.046,8.954-20,20-20h2.857
		L357.143,265z M75,215h50l-10-70H65L75,215z"/>
	<path id="XMLID_938_" style="fill:#898784;" d="M240,255c0,5.523,4.477,10,10,10h20v100h-90V165c0-11.046,8.954-20,20-20h50
		c11.046,0,20,8.954,20,20v80h-20C244.477,245,240,249.477,240,255z"/>
</g>
<g>
</g>
<g>
</g>
<g>
</g>
<g>
</g>
<g>
</g>
<g>
</g>
<g>
</g>
<g>
</g>
<g>
</g>
<g>
</g>
<g>
</g>
<g>
</g>
<g>
</g>
<g>
</g>
<g>
</g>
</svg>
