<?xml version="1.0" encoding="iso-8859-1"?>
<!-- Generator: Adobe Illustrator 19.0.0, SVG Export Plug-In . SVG Version: 6.00 Build 0)  -->
<svg version="1.1" id="Layer_1" xmlns="http://www.w3.org/2000/svg" xmlns:xlink="http://www.w3.org/1999/xlink" x="0px" y="0px"
	 viewBox="0 0 512 512" style="enable-background:new 0 0 512 512;" xml:space="preserve">
<path style="fill:#6DDE57;" d="M485.28,290.211c0-16.641-13.49-30.13-30.13-30.13h-30.333l-29.411-121.026H18.468v121.026v19.647
	v113.167h466.813V290.211H485.28z"/>
<path style="fill:#488E53;" d="M485.28,290.211c0-16.641-13.49-30.13-30.13-30.13h-30.333l-29.411-121.026H231.732v253.838H485.28
	L485.28,290.211L485.28,290.211z"/>
<path style="fill:#AAAAAA;" d="M512,369.857c0-4.199-3.403-7.602-7.602-7.602H7.602c-4.199,0-7.602,3.403-7.602,7.602v16.624
	c0,4.199,3.403,7.602,7.602,7.602h496.797c4.199,0,7.602-3.403,7.602-7.602L512,369.857L512,369.857z"/>
<path style="fill:#E1E1E3;" d="M444.997,78.996c0-11.969-9.703-21.672-21.671-21.672H40.14c-11.969,0-21.672,9.703-21.672,21.672
	v73.42h404.858c11.969,0,21.671-9.703,21.671-21.672V78.996z"/>
<path style="fill:#2C6833;" d="M485.28,306.769h-23.15c-1.972,0-3.57,1.599-3.57,3.57v32.939c0,1.971,1.599,3.57,3.57,3.57h23.15
	V306.769z"/>
<path style="fill:#F7DC4D;" d="M499.427,322.189c0,6.247-5.064,11.311-11.311,11.311h-25.984c-1.972,0-3.57-1.599-3.57-3.57v-32.939
	c0-1.972,1.599-3.57,3.57-3.57h25.984c6.247,0,11.311,5.064,11.311,11.311V322.189z"/>
<path style="fill:#255B2C;" d="M395.406,244.273h-87.702c-7.988,0-14.462-6.475-14.462-14.462v-41.804
	c0-7.988,6.475-14.462,14.462-14.462h72.127L395.406,244.273z"/>
<path style="fill:#1C4C21;" d="M307.704,190.232h72.127l11.9,54.042h3.675l-15.575-70.729h-72.127
	c-7.988,0-14.462,6.475-14.462,14.462v16.687C293.242,196.706,299.718,190.232,307.704,190.232z"/>
<path style="fill:#79C6BF;" d="M43.54,180.425c0-4.156,3.37-7.526,7.526-7.526h91.043c4.156,0,7.526,3.37,7.526,7.526v56.967
	c0,4.156-3.37,7.526-7.526,7.526H51.066c-4.156,0-7.526-3.37-7.526-7.526V180.425z"/>
<g>
	<path style="fill:#348A7A;" d="M149.635,180.425c0-4.156-3.37-7.526-7.526-7.526H51.066c-4.156,0-7.526,3.37-7.526,7.526v16.717
		c0-5.402,4.38-9.782,9.782-9.782h86.53c5.402,0,9.782,4.38,9.782,9.782v-16.717H149.635z"/>
	<path style="fill:#348A7A;" d="M149.635,180.425c0-4.156-3.37-7.526-7.526-7.526H96.587v72.018h45.522
		c4.156,0,7.526-3.37,7.526-7.526V180.425z"/>
</g>
<path style="fill:#898989;" d="M0,378.169v8.311c0,4.199,3.403,7.602,7.602,7.602h496.797c4.199,0,7.602-3.403,7.602-7.602v-8.311H0
	z"/>
<path style="fill:#5E3C16;" d="M271.129,231.523c0-9.831-7.969-17.8-17.8-17.8h-66.958c-9.831,0-17.8,7.969-17.8,17.8v162.56
	h102.557V231.523z"/>
<path style="fill:#C27526;" d="M254.953,243.242c0-5.959-4.83-10.79-10.79-10.79h-54.428c-2.756,0-4.99,2.234-4.99,4.99v156.641
	h70.206V243.242H254.953z"/>
<path style="fill:#2D2E30;" d="M208.036,309.55h-23.919c-5.222,0-9.456-4.234-9.456-9.456c0-5.222,4.234-9.456,9.456-9.456h23.919
	c5.222,0,9.456,4.234,9.456,9.456C217.492,305.316,213.259,309.55,208.036,309.55z"/>
<g>
	<path style="fill:#8A8A91;" d="M409.397,97.745H54.855c-6.144,0-11.125-4.982-11.125-11.125c0-6.143,4.981-11.125,11.125-11.125
		h354.542c6.144,0,11.125,4.982,11.125,11.125C420.522,92.763,415.541,97.745,409.397,97.745z"/>
	<path style="fill:#8A8A91;" d="M409.397,133.344H54.855c-6.144,0-11.125-4.982-11.125-11.125c0-6.143,4.981-11.125,11.125-11.125
		h354.542c6.144,0,11.125,4.982,11.125,11.125C420.522,128.363,415.541,133.344,409.397,133.344z"/>
</g>
<circle style="fill:#57565C;" cx="384.399" cy="394.078" r="60.597"/>
<path style="fill:#2D2E30;" d="M384.403,333.488v121.188c33.465,0,60.594-27.129,60.594-60.594S417.868,333.488,384.403,333.488z"/>
<path style="fill:#AAAAAA;" d="M384.403,418.503c-13.466,0-24.42-10.956-24.42-24.42s10.955-24.419,24.42-24.419
	c13.466,0,24.42,10.955,24.42,24.419C408.823,407.547,397.868,418.503,384.403,418.503z"/>
<path style="fill:#282828;" d="M384.403,375.073c10.499,0,19.01,8.511,19.01,19.01c0,10.499-8.511,19.01-19.01,19.01
	c-10.499,0-19.01-8.511-19.01-19.01C365.392,383.584,373.904,375.073,384.403,375.073 M384.403,364.252
	c-16.448,0-29.83,13.382-29.83,29.83s13.382,29.83,29.83,29.83c16.448,0,29.83-13.382,29.83-29.83S400.851,364.252,384.403,364.252
	L384.403,364.252z"/>
<circle style="fill:#57565C;" cx="98.812" cy="394.078" r="60.597"/>
<path style="fill:#2D2E30;" d="M98.812,333.488v121.188c33.465,0,60.594-27.129,60.594-60.594S132.276,333.488,98.812,333.488z"/>
<path style="fill:#AAAAAA;" d="M98.812,418.503c-13.466,0-24.42-10.956-24.42-24.42s10.955-24.419,24.42-24.419
	s24.42,10.955,24.42,24.419C123.232,407.547,112.277,418.503,98.812,418.503z"/>
<path style="fill:#282828;" d="M98.812,375.073c10.499,0,19.01,8.511,19.01,19.01c0,10.499-8.511,19.01-19.01,19.01
	c-10.499,0-19.01-8.511-19.01-19.01C79.802,383.584,88.313,375.073,98.812,375.073 M98.812,364.252
	c-16.448,0-29.83,13.382-29.83,29.83s13.382,29.83,29.83,29.83s29.83-13.382,29.83-29.83S115.261,364.252,98.812,364.252
	L98.812,364.252z"/>
<polygon style="fill:#1C4C21;" points="344.324,244.273 395.406,244.273 379.832,173.544 344.324,173.544 "/>
<g>
</g>
<g>
</g>
<g>
</g>
<g>
</g>
<g>
</g>
<g>
</g>
<g>
</g>
<g>
</g>
<g>
</g>
<g>
</g>
<g>
</g>
<g>
</g>
<g>
</g>
<g>
</g>
<g>
</g>
</svg>
