<?xml version="1.0" encoding="iso-8859-1"?>
<!-- Generator: Adobe Illustrator 19.0.0, SVG Export Plug-In . SVG Version: 6.00 Build 0)  -->
<svg version="1.1" id="Layer_1" xmlns="http://www.w3.org/2000/svg" xmlns:xlink="http://www.w3.org/1999/xlink" x="0px" y="0px"
	 viewBox="0 0 512 512" style="enable-background:new 0 0 512 512;" xml:space="preserve">
<g>
	<path style="fill:#2D2E30;" d="M495.599,367.738H376.59c-9.058,0-16.401-7.343-16.401-16.401c0-9.058,7.343-16.401,16.401-16.401
		h119.008c9.058,0,16.401,7.343,16.401,16.401C512,360.395,504.657,367.738,495.599,367.738z"/>
	<path style="fill:#2D2E30;" d="M465.846,422.111c-9.058,0-16.401-7.343-16.401-16.401v-49.999c0-9.058,7.343-16.401,16.401-16.401
		c9.058,0,16.401,7.343,16.401,16.401v49.999C482.248,414.768,474.904,422.111,465.846,422.111z"/>
</g>
<path style="fill:#F7DC4D;" d="M157.146,84.826C84.145,84.826,24.953,144,24.953,217.001c0,70.428,0,143.921,0,150.684h357.446
	c19.115,0,37.16-8.818,48.907-23.898c11.746-15.081,15.878-34.736,11.198-53.268l-23.988-94.999
	c-16.434-65.088-74.985-110.692-142.116-110.692H157.146V84.826z"/>
<path style="fill:#EDA637;" d="M442.504,290.517l-23.988-94.999c-16.434-65.087-74.985-110.692-142.116-110.692h-41.73v282.858
	h147.727c19.114,0,37.16-8.818,48.906-23.898C443.05,328.707,447.184,309.051,442.504,290.517z"/>
<path style="fill:#7E4F1F;" d="M361.044,184.2c0-9.663-7.832-17.495-17.495-17.495h-79.292c-9.663,0-17.495,7.832-17.495,17.495
	v183.483h114.282V184.2z"/>
<path style="fill:#C27526;" d="M350.11,184.622c0-4.085-3.312-7.397-7.397-7.397h-77.62c-4.085,0-7.397,3.312-7.397,7.397v183.062
	h92.413V184.622H350.11z"/>
<path style="fill:#7E4F1F;" d="M284.349,286.123h-26.652c-4.529,0-8.201-3.672-8.201-8.201s3.672-8.201,8.201-8.201h26.652
	c4.529,0,8.201,3.672,8.201,8.201S288.878,286.123,284.349,286.123z"/>
<path style="fill:#38373A;" d="M284.349,280.656h-26.652c-4.529,0-8.201-3.672-8.201-8.201s3.672-8.201,8.201-8.201h26.652
	c4.529,0,8.201,3.672,8.201,8.201S288.878,280.656,284.349,280.656z"/>
<path style="fill:#F7E05D;" d="M85.709,183.737c0-4.085,3.312-7.397,7.397-7.397h89.483c4.085,0,7.397,3.312,7.397,7.397v55.991
	c0,4.085-3.312,7.397-7.397,7.397H93.106c-4.085,0-7.397-3.312-7.397-7.397V183.737z"/>
<g>
	<path style="fill:#79C6BF;" d="M85.709,173.896c0-4.085,3.312-7.397,7.397-7.397h89.483c4.085,0,7.397,3.312,7.397,7.397v55.991
		c0,4.085-3.312,7.397-7.397,7.397H93.106c-4.085,0-7.397-3.312-7.397-7.397V173.896z"/>
	<path style="fill:#79C6BF;" d="M189.986,173.896c0-4.085-3.312-7.397-7.397-7.397h-44.741v70.784h44.742
		c4.085,0,7.397-3.312,7.397-7.397v-55.99H189.986z"/>
</g>
<path style="fill:#8A8A91;" d="M121.409,331.096H10.415C4.663,331.096,0,335.759,0,341.511v15.758
	c0,5.751,4.662,10.415,10.415,10.415h110.994V331.096z"/>
<path style="fill:#348A7A;" d="M189.986,173.896c0-4.085-3.312-7.397-7.397-7.397H93.106c-4.085,0-7.397,3.312-7.397,7.397v16.431
	c0-5.31,4.305-9.614,9.614-9.614h85.047c5.31,0,9.615,4.305,9.615,9.614v-16.431H189.986z"/>
<circle style="fill:#57565C;" cx="125.777" cy="369.545" r="57.629"/>
<path style="fill:#2D2E30;" d="M125.782,311.916v115.257c31.827,0,57.629-25.802,57.629-57.629S157.61,311.916,125.782,311.916z"/>
<path style="fill:#FFFFFF;" d="M125.782,392.942c-12.901,0-23.397-10.496-23.397-23.397c0-12.901,10.496-23.397,23.397-23.397
	s23.397,10.496,23.397,23.397C149.179,382.446,138.684,392.942,125.782,392.942z"/>
<path style="fill:#282828;" d="M125.782,351.465c9.985,0,18.08,8.095,18.08,18.08c0,9.985-8.095,18.08-18.08,18.08
	c-9.985,0-18.08-8.095-18.08-18.08C107.702,359.559,115.797,351.465,125.782,351.465 M125.782,340.83
	c-15.833,0-28.714,12.882-28.714,28.714c0,15.833,12.882,28.714,28.714,28.714s28.714-12.882,28.714-28.714
	C154.497,353.712,141.615,340.83,125.782,340.83L125.782,340.83z"/>
<rect x="130.588" y="163.292" style="fill:#F7DC4D;" width="15.308" height="74.364"/>
<g>
</g>
<g>
</g>
<g>
</g>
<g>
</g>
<g>
</g>
<g>
</g>
<g>
</g>
<g>
</g>
<g>
</g>
<g>
</g>
<g>
</g>
<g>
</g>
<g>
</g>
<g>
</g>
<g>
</g>
</svg>
